<svg xmlns="http://www.w3.org/2000/svg" xmlns:xlink="http://www.w3.org/1999/xlink" width="420" height="680" viewBox="0 0 420 680">
    <defs>
        <path id="a" d="M.525.306H326.99v194.623H.525z"/>
    </defs>
    <g fill="none" fill-rule="evenodd">
        <path fill="#D1D3D4" d="M324.586 664.216c.672-12.07-50.086-25.102-113.37-29.104-63.284-4.002-115.13 2.537-115.802 14.605-.673 12.07 50.085 25.102 113.369 29.106 63.285 4.003 115.132-2.536 115.803-14.607"/>
        <path fill="#FFBD1A" d="M79.407 249.424c4.467 39.4 20.342 67.228 20.342 67.228-78.14-94.834-16.02-214.068 5.617-255.71-60.516 83.91-61.12 165.08-61.373 170.973C43.41 166.747 62.545 89.903 137.926 0c-57.2 60.644-83.595 118.944-100.86 170.089-16.88 51.372-13.806 127.253 19.648 208.065-.365-.48-22.96-30.747-42.05-125.533-3.808 115.609 68.11 187.185 68.11 187.185l8.843-37.845 6.21-21.097 20.474-53.537 5.019-16.294c-20.738-10.164-38.826-34.39-43.913-61.61"/>
        <path fill="#FFDE17" d="M87.512 398.129s-56.566-75.773-51.99-182.064c0 0 .275 65.59 33.088 117.885 0 0-19.009-56.219-16.543-114.388 0 0 3.468 64.03 40.398 108.304 35.376 42.411 18.736 6.084 18.736 6.084L87.512 398.13"/>
        <path fill="#FFF" d="M52.877 117.403l-12.494 30.605 5.454-7.516-13.757 35.24 2.189-10.2-7.955 18.726 1.801-18.714s-.817-.705-2.102-2.035c-4.475-4.618-14.608-16.758-15.489-32.694-1.14-20.512-9.487-20.523-9.487-20.523s.145-17.395 12.65-18.934c12.509-1.534 20.151-9.71 25.798-26.648 0 0 14.264 3.495 12.17 19.639-1.219 9.416.462 15.281 2.076 18.528C54.883 105.194 56 106.18 56 106.18l-11.087 26.185 7.964-14.963"/>
        <path fill="#BCBEC0" d="M38.531 64.71l-.16.48c-5.626 16.967-13.187 24.843-25.28 26.333-5.312.658-9.26 4.265-11.422 10.434-1.609 4.59-1.662 8.919-1.664 9.1l-.005.57h.54c.075.003 1.946.064 3.99 2.489 3.506 4.159 4.62 11.84 4.936 17.552.893 16.225 11.208 28.58 15.602 33.137.91.946 1.584 1.578 1.912 1.876l-2.105 21.964 1.36-3.215 5.73-13.563-.994 4.663 1.019.34 15.26-39.295-2.467 3.415-2.81 3.894 10.75-26.472-.961-.498-2.21 4.176 6.285-14.917.163-.39-.308-.274c-.01-.007-1.058-.963-2.134-3.138-1.578-3.197-3.21-8.955-2.015-18.235 1.113-8.615-2.362-13.684-5.47-16.42-3.356-2.95-6.922-3.854-7.073-3.89l-.469-.116zm.347.665S53.1 68.88 51.013 85.06c-1.216 9.437.46 15.316 2.069 18.57 1.149 2.324 2.263 3.312 2.263 3.312L44.29 133.188l7.94-14.998-12.457 30.676 5.438-7.533-13.717 35.321 2.182-10.223-7.931 18.769 1.796-18.757s-.815-.707-2.096-2.04c-4.463-4.63-14.566-16.796-15.444-32.77-1.138-20.56-9.46-20.57-9.46-20.57s.145-17.435 12.613-18.978c12.473-1.538 20.093-9.732 25.724-26.71z"/>
        <path fill="#FFF" d="M93.752 180.882c-11.257 10.965-10.74 29.128-8.31 39.975 2.43 10.848-6.51 12.756-6.51 12.756s4.29-7.738-2.654-12.948c-2.452-1.835-5.315-3.362-8.145-5.046v-.005c-5.188-3.086-10.255-6.697-12.423-13.703l-2.821 2.068 2.88-14.66 11.236-48.7-.02 12.69 6.798-27.18-.484 11.421s1.42-.1 3.444.22c2.57.4 6.108 1.475 8.935 4.274 1.726 1.7 3.184 4.038 4 7.254.951 3.74 2.152 5.733 3.37 6.68v.005c2.91 2.276 5.933-1.396 5.933-1.396s6.026 15.323-5.229 26.295"/>
        <path fill="#BCBEC0" d="M74.165 120.645l-6.974 28.18.022-13.11-12.225 53.55-2.867 14.748-.27 1.389 1.094-.809 2.228-1.65c2.333 6.764 7.413 10.374 12.09 13.206l.27.168c.688.413 1.377.818 2.061 1.218 2.144 1.257 4.17 2.444 5.99 3.822 6.432 4.877 2.651 11.962 2.488 12.26l-.598 1.093 1.16-.251c.155-.034 3.809-.858 5.907-4.35 1.458-2.425 1.786-5.503.977-9.151-2.782-12.557-2.115-29.559 8.106-39.62 5.922-5.838 7.057-12.886 6.963-17.772-.098-5.273-1.574-9.12-1.636-9.28l-.327-.846-.564.691c-.015.018-1.624 1.954-3.466 1.954-.564 0-1.104-.185-1.609-.553l-.108-.088c-1.275-1.001-2.335-3.155-3.153-6.402-.765-3.048-2.154-5.59-4.124-7.556-2.939-2.94-6.608-4.038-9.17-4.44a18.589 18.589 0 0 0-2.916-.243h-.03l.68-16.158zm-.753 5.264l-.482 11.476s.21-.016.584-.016c.597 0 1.605.038 2.84.237 2.554.4 6.072 1.482 8.882 4.294 1.715 1.708 3.164 4.057 3.976 7.288.946 3.757 2.14 5.76 3.35 6.711v.006c.685.541 1.375.748 2.032.748 2.116 0 3.866-2.15 3.866-2.15s5.99 15.395-5.198 26.42c-11.19 11.016-10.676 29.265-8.26 40.164 2.416 10.9-6.472 12.816-6.472 12.816s4.265-7.774-2.638-13.009c-2.438-1.844-5.284-3.378-8.098-5.07v-.005c-5.156-3.1-10.194-6.729-12.349-13.768l-2.804 2.078 2.862-14.73 11.17-48.93-.02 12.748 6.759-27.308z"/>
        <path fill="#FFBD1A" d="M104.74 353.971s-9.01-7.568-20.85-23.842c0 0 5.948 18.13 15.362 32.259 0 0-8.625-7.472-13.09-15.228 0 0 6.187 15.175 12.863 24.976l-2.156 8.842S70.976 350.375 62.222 332.4c0 0 14.132 38.22 30.56 56.954l11.025-18.377.934-17.007"/>
        <path fill="#BE1E2D" d="M389.926 307.97s-8.538 22.705-43.756 16.316c0 0-3.56 23.523-27.749 23.224-24.194-.293-28.814-8.724-41.62.006-12.81 8.724-37.097-8.944-41.319-17.968-.037.09-.08.18-.118.27-.809 1.698-6.066 10.716-24.77 6.559-20.597-4.573-19.775-79.02-19.775-79.02l24.37-42.93s17.497-8.325 74.77 39.484c8.783 7.331 17.224 13.688 25.218 19.192 44.147 30.388 74.749 34.867 74.749 34.867"/>
        <path fill="#931120" d="M260.175 286.125s28 35.959 32.959 50.594c0 0-9.211-10.427-17.717-2.606 0 0-26.332-3.836-31.776-24.963-2.573-10-3.918-15.921-4.614-19.384 1.09 8.169 2.366 25.575-3.711 40.105-.037.091-.08.182-.118.271-.806 1.703-6.043 10.746-24.678 6.577-20.52-4.585-19.7-79.24-19.7-79.24l24.278-43.051s17.433-8.348 74.491 39.595c8.75 7.352 17.16 13.727 25.125 19.246l-.075 8.789s-14.54-13.646-35.384-17.414c0 0 38.308 28.261 56.745 51.252-1.016-.94-34.986-32.016-75.825-29.77"/>
        <path fill="#1450A8" d="M149.333 245.85s-1.083 39.777-4.113 44.094c-3.032 4.319-11.473 38.005-11.473 38.005-.408 4.316-2.964 5.672-2.964 5.672l-9.455 17.378v.007L95.116 399.2s-2.65-.18 1.684 11.064c4.332 11.25 1.543 14.846 1.543 14.846l1.453 4.072-1.939 5.428c-.333 5.93-2.701 6.3-2.701 6.3l.656 3.921-3.054 3.603-2.68-1.134-1.282 1.282-5.833-8.63 1.038-33.011s10.89-30.84 17.212-55.877c6.233-24.68 16.715-37.188 17.012-37.532.005-.006.005-.012.005-.012.254-5.194 1.976-14.644 3.957-24.112 2.956-14.19 6.49-28.418 6.49-28.418-1.917-18.248 10.49-35.054 10.49-35.054l10.166 19.915"/>
        <path fill="#FFDE17" d="M96.782 410.298c4.327 11.238 1.54 14.832 1.54 14.832l1.452 4.068-1.936 5.423c-.333 5.925-2.698 6.296-2.698 6.296l.655 3.917-3.05 3.6-2.677-1.134-1.28 1.28-5.825-8.62L84 406.976s10.876-30.813 17.19-55.827c6.313-25.013 16.994-37.51 16.994-37.51.254-5.19 1.974-14.631 3.953-24.092 0 0-1.484 13.48 2.128 27.054 0 0 .913-4.353 6.402-8.68-.114.246-4.362 9.398-2.327 30.182L95.1 399.243s-2.646-.18 1.682 11.055"/>
        <path fill="#FFBD1A" d="M122.466 351.107v.007l-25.573 45.612-1.416 2.533h-.005c-.164 0-2.585.174 1.735 11.05 4.463 11.232 1.59 14.828 1.59 14.828l1.496 4.067-1.992 5.42c-.347 5.926-2.784 6.296-2.784 6.296l.672 3.917-3.145 3.596-2.757-1.13-1.318 1.278-6.006-8.616 1.067-32.98s1.556-4.284 3.851-10.946a835.51 835.51 0 0 0 3.298-9.761c3.473-10.484 7.535-23.426 10.577-35.109 6.416-24.653 17.21-37.15 17.517-37.492-.056.314-1.46 7.99.598 17.696 0 0 1.973-6.123 3.536-8.148 0 0-1.784 14.096-.941 27.882"/>
        <path fill="#FFDE17" d="M101.63 389.257s-4.757-4.574-10.147-2.772a914.056 914.056 0 0 1-3.335 9.852s4.183-2.54 9.114.695"/>
        <path fill="#1C59BA" d="M305.67 671.226s-34.51-10.432-39.78-36.327l.042-.37c.227-2.743.867-20.708-17.95-49.365-20.495-31.213-24.314-82.975-24.314-82.975-5.879-6.552-4.82-17.496-4.82-17.496s-5.647-5.416-12.712-14.45c-.739-.94-1.493-1.922-2.252-2.943a165.774 165.774 0 0 1-9.272-13.728v-.004c-3.71-6.157-7.226-12.992-10.014-20.268-11.229-29.292-13.314-28.087-13.314-28.087-5.212 8.964-9.45 21.763-12.691 34.06l.001.004c-1.966 7.464-3.559 14.73-4.783 20.852a831.298 831.298 0 0 0-.585 3.018c-1.547 8.09-2.33 13.524-2.33 13.524 17.238 31.336 11.957 71.018 11.957 71.018-11.844 27.52-7.457 66.468-7.457 66.468 5.318 13.343 5.38 21.616 5.38 21.616l-13.348 3.124c-23.526 16.665-33.354 8.38-33.354 8.38s16.905-13.413 24.388-22.72c7.487-9.3 9.141-23.652 3.437-57.289-5.707-33.638-12.045-86.813-12.045-86.813-4.201-9.243-.314-20.296-.314-20.296-1.921-13.242-2.945-25.347-3.293-36.352v-.005c-.232-7.265-.173-14.053.12-20.372 2.183-47.983 17.46-69.228 17.46-69.228.855-2.113 1.392-4.502 1.687-7.04v-.011c.8-6.861-.157-14.832-1.43-21.47-1.524-7.92-3.505-13.951-3.505-13.951-.404-.515-.79-1.06-1.15-1.624-.143-.208-.21-.324-.21-.324-7.904-12.57-6.478-34.714-6.478-34.714l3.548-5.21c-3.544-10.87 3.98-24.405 3.98-24.405 3.795-.14 9.067-1.148 14.657-2.522 1.212-.298 2.445-.609 3.677-.937l.004-.005c.874-.23 1.753-.471 2.63-.712a324.96 324.96 0 0 0 6.22-1.798 407.763 407.763 0 0 0 17.246-5.608c-2.286 2.403-6.233 7.028-9.294 13.138-1.964 3.921-3.564 8.443-4.12 13.376 0 0 24.408-.619 32.177 1.49 0 0 5.391-9.647 9.818-12.35 0 0 .77-8.914 4.664-11.597 4.038 2.007 16.14 6.71 24.95 10.069.925.356 1.816.695 2.654 1.013 1.523.582 2.888 1.096 4.006 1.517 2 .75 3.226 1.206 3.226 1.206 4.227 7.46 2.216 14.304 2.216 14.304-12.861 5.366-18.272 27.754-18.272 27.754-.12.84-.305 1.737-.545 2.678-3.172 12.574-15.994 32.91-15.994 32.91s-15.586 21.265 1.164 68.034c1.625 4.53 3.124 9.255 4.502 14.084a301.978 301.978 0 0 1 3.53 13.58v.004c9.86 41.681 12.094 85.919 12.094 85.919s18.379 24.52 21.757 62.76c2.058 23.3 6.559 44.98 9.763 58.354 0 .007 3.449 9.984 8.608 13.46 0 0 2.45 1.883 2.004 4.438 0 0 20.142 23.232 21.523 24.874 1.381 1.642.536 16.34.536 16.34"/>
        <path fill="#1450A8" d="M305.67 671.226s-34.476-10.429-39.74-36.316l.04-.37c.228-2.742.867-20.702-17.933-49.35-20.474-31.204-24.29-82.95-24.29-82.95-5.873-6.55-4.815-17.491-4.815-17.491s-12.993-12.475-24.213-31.112v-.004c7.462-44.025-.793-92.696-.793-92.696 5.027 7.711 7.083 16.095 7.083 16.095-.737-12.381-5.663-37.578-5.663-37.578-2.657-24.435 13.27-48.428 13.27-48.428.65-23.904 12.905-41.772 22.588-52.244 6.448-6.966 11.754-10.653 11.754-10.653 5.608 2.145 9.877 3.735 9.877 3.735 4.224 7.459 2.213 14.3 2.213 14.3-12.848 5.365-18.253 27.746-18.253 27.746-1.727 12.094-16.524 35.578-16.524 35.578s-.005 0-.005.007c-.3.42-13.477 19.046-1.691 59.236.006.004.006.008.006.008a155.156 155.156 0 0 0 2.853 8.761c16.74 46.758 20.107 113.553 20.107 113.553s18.361 24.513 21.736 62.741c2.056 23.295 6.552 44.967 9.753 58.338 0 .007 3.446 9.98 8.6 13.455 0 0 2.449 1.883 2.002 4.438 0 0 20.123 23.224 21.503 24.866 1.38 1.641.535 16.335.535 16.335"/>
        <path fill="#FFBD1A" d="M159.949 168.903v.005c-2.203 23.032 11.162 28.511 11.162 28.511l-.997-2.118c-5.719-4.384-2.648-15.914-2.648-15.914h.001c-4.034-2.679-6.29-7.036-7.518-10.484"/>
        <path fill="#0B3E7A" d="M220.889 199.132a178.438 178.438 0 0 1-5.787 4.658c-11.48 8.837-16.975 6.477-16.975 6.477l-14.321-17.235s3.88 9.077 3.546 19.208c0 0-.724.654-1.849 1.854a57.908 57.908 0 0 0-6.663 8.654c-3.038 4.835-5.908 11.069-6.692 18.134 0 0 24.302-.626 32.038 1.505 0 0 5.369-9.747 9.776-12.478 0 0 .249-2.904 1.173-5.912.703-2.288 1.796-4.633 3.472-5.805l-3.533-3.002s1.892-10.228 5.814-16.054v-.004"/>
        <path fill="#BE1E2D" d="M185.63 213.871c-2.313 2.406-6.309 7.037-9.406 13.156-10.012.033-20.353 7.455-20.668 7.683l6.326-13.423a323.206 323.206 0 0 0 6.293-1.8 437.544 437.544 0 0 0 11.708-3.671c3.521-1.163 5.747-1.945 5.747-1.945"/>
        <path fill="#1450A8" d="M160.143 222.256a227.012 227.012 0 0 1-3.651.913c-5.705 1.372-11.092 2.384-14.969 2.525 0 0-7.639 13.436-4.041 24.225l-3.602 5.171s-1.448 21.98 6.577 34.458c-6.432-36.72 16.005-54.69 16.005-54.69l6.353-13.31c-.889.241-1.783.478-2.672.708M163.086 547.556c-11.901 27.543-7.493 66.525-7.493 66.525 5.343 13.354 5.406 21.634 5.406 21.634l-13.411 3.127c-23.64 16.68-33.514 8.387-33.514 8.387s16.985-13.425 24.504-22.74c7.523-9.307 9.185-23.671 3.454-57.337-5.734-33.667-12.103-86.888-12.103-86.888-4.22-9.25-.315-20.313-.315-20.313-12.861-88.362 14.355-126.065 14.355-126.065.859-2.116 1.399-4.507 1.695-7.047.11.401 2.97 11.472-2.149 25.698-5.217 14.493-1.908 17.759-1.908 17.759s.479-7.166 3.893-11.438c0 0-5.232 46.36 13.305 80.188l.001.005c-5.11 19.334-7.734 37.426-7.734 37.426 17.32 31.362 12.014 71.08 12.014 71.08"/>
        <path fill="#FFDE17" d="M163.086 547.738c-11.901 27.494-7.493 66.406-7.493 66.406 5.343 13.33 5.406 21.595 5.406 21.595l-13.411 3.122c-23.64 16.65-33.514 8.372-33.514 8.372s16.985-13.4 24.504-22.7c7.523-9.29 9.185-23.629 3.454-57.234-5.734-33.607-12.103-86.733-12.103-86.733-4.22-9.234-.315-20.277-.315-20.277-3.205-21.961-3.92-40.79-3.189-56.676 0 0 1.057 16.266 7.314 26.746 0 0 .44-12.415 1.872-17.542 0 0 3.746 31.29 18.39 47.441-1.943 9.723-2.929 16.528-2.929 16.528 17.32 31.306 12.014 70.952 12.014 70.952M305.668 670.129s-34.72-10.43-40.022-36.321l.041-.37c.23-2.743.873-20.706-18.06-49.358-20.62-31.21-24.462-82.964-24.462-82.964-5.915-6.55-4.85-17.493-4.85-17.493s-6.927-6.603-15.056-17.39c0 0 9.728-36.191 8.339-56.82 0 0 4.884 7.718 6.553 15.175 0 0 6.668-11.978 7.215-34.136 12.953 45 15.719 99.476 15.719 99.476s18.491 24.517 21.89 62.751c2.07 23.298 6.599 44.974 9.822 58.347 0 .007 3.47 9.982 8.66 13.457 0 0 2.467 1.884 2.017 4.439 0 0 20.266 23.228 21.655 24.87 1.39 1.64.539 16.337.539 16.337"/>
        <path fill="#1C59BA" d="M304.634 671.226S270.205 660.825 264.948 635l.043-.374c.226-2.736.862-20.65-17.912-49.23-3.472-5.286-6.464-11.168-9.036-17.29h-.006c-12.584-29.895-15.21-65.455-15.21-65.455-5.866-6.534-4.808-17.453-4.808-17.453s-5.634-5.4-12.686-14.409c0 0 7.35-19.148 9.344-39.102 0 0 1.711 3.718 3.23 12.46 0 0 10.04-19.805 10.62-38.342 6.45 27.26 9.632 55.609 11.057 71.904.745 8.551 1.01 13.783 1.01 13.783s9.842 13.122 16.423 35.135a137.701 137.701 0 0 1 4.664 21.82c.243 1.84.45 3.72.62 5.629 2.047 23.24 6.544 44.86 9.736 58.196 0 .004 3.442 9.959 8.587 13.427 0 0 2.446 1.879 2.003 4.425 0 0 20.09 23.172 21.472 24.808 1.377 1.637.535 16.293.535 16.293M157.7 565.158c-4.916 24.049-2.106 48.892-2.106 48.892 5.342 13.362 5.407 21.654 5.407 21.654l-13.415 3.13c-23.638 16.695-33.512 8.392-33.512 8.392s16.983-13.437 24.505-22.758c7.52-9.319 9.182-23.694 3.451-57.396-1.428-8.398-2.901-18.017-4.298-27.727-2.644-18.345-5.044-37.008-6.466-48.354a2084.77 2084.77 0 0 1-1.333-10.885c-1.425-3.115-1.92-6.444-1.958-9.476-.08-5.986 1.636-10.853 1.636-10.853-1.926-13.268-2.956-25.395-3.306-36.422.053.307 2.042 11.348 8.633 19.832 0 0 .03-4.524.475-7.367 0 0 7.16 20.476 18 26.95-1.557 8.104-2.34 13.549-2.34 13.549 17.319 31.386 12.013 71.142 12.013 71.142-2.405 5.57-4.142 11.608-5.386 17.697"/>
        <path fill="#BE1E2D" d="M255.673 247.243c-12.766 5.333-18.137 27.58-18.137 27.58-.12.835-.303 1.727-.542 2.66 0 0-7.266-28.125 9.301-47.16 4.224 1.604 7.179 2.706 7.179 2.706 4.196 7.414 2.2 14.214 2.2 14.214M159.704 222.645c-9.761 5.21-15.662 21.71-15.662 21.71l-7.217 6.806c-3.634-11.123 4.08-24.975 4.08-24.975 4.74-.176 11.722-1.668 18.799-3.54"/>
        <path fill="#FFBD1A" d="M160.74 636.832l-13.337 3.122c-23.508 16.655-33.329 8.375-33.329 8.375s16.892-13.405 24.37-22.706c7.48-9.294 9.134-23.637 3.434-57.253-1.42-8.383-2.887-17.974-4.276-27.66 0 0 5.55 18.45 19.859 25.748-4.886 23.989-2.097 48.772-2.097 48.772 5.314 13.334 5.377 21.602 5.377 21.602M304.635 672.323s-34.18-10.437-39.4-36.345l.041-.37c.225-2.745.859-20.718-17.78-49.388-3.447-5.307-6.422-11.206-8.977-17.35 0 0 14.167-13.897 14.898-32.547 0 0 3.299 3.958 8.572 12.825.246 1.849.449 3.733.616 5.65 2.039 23.314 6.497 45.003 9.67 58.384 0 .007 3.417 9.989 8.526 13.466 0 0 2.428 1.885 1.985 4.441 0 0 19.95 23.243 21.319 24.886 1.368 1.642.53 16.348.53 16.348"/>
        <path fill="#FFE7CC" d="M235.789 183.045l-2.13 3.73s-3.752 3.916-9.779 9.168a206.314 206.314 0 0 1-4.002 3.388 172.21 172.21 0 0 1-5.803 4.587c-11.51 8.705-17.022 6.381-17.022 6.381l-24.407-28.859a14.434 14.434 0 0 1-4.716-1.993c-4.027-2.614-6.275-6.871-7.505-10.24-1.044-2.87-1.338-5.094-1.338-5.094l1.429-1.355 3.197-3.025 2.996 2.416a31.02 31.02 0 0 0-.174-1.92c-.221-1.9-.615-4.031-1.101-6.253-2.293-10.41-6.767-22.833-6.767-22.833 12.06 12.048 22.043 9.294 22.043 9.294-9.079-2.293-13.093-10.752-13.215-11.018 7.411 3.652 15.755 3.626 15.755 3.626 11.594 9.96 19.583 11.07 19.583 11.07 3.678-5.05 12.41-9.581 12.41-9.581 9.61 3.346 20.789 15.976 24.425 20.318a60.51 60.51 0 0 1 1.209 1.478l4.656.53-2.786 7.962 4.145-2.96 4.404.96c4.68 17.375-15.507 20.223-15.507 20.223"/>
        <path fill="#E8C0A6" d="M206.37 170.758l-6.45-7.339-2.883 6.812s.862 4.04 9.333.527"/>
        <path fill="#BE1E2D" d="M215.048 134.454s-8.702 4.46-12.368 9.43c0 0-7.96-1.092-19.515-10.896 0 0-8.315.026-15.7-3.569.12.262 4.121 8.588 13.169 10.845 0 0-9.948 2.71-21.967-9.148 0 0 6.72 18.427 7.88 28.995l.006.015s15.984 5.642 28.708-1.045c0 0 2.25-3.802 8.883 1.06 6.635 4.863 22.226 4.986 36.449-4.235 0 0-13.922-17.455-25.545-21.452"/>
        <path fill="#F7A866" d="M220.889 174.387l-11.501 10.841s-12.615.715-16.951-1.25c0 0-.857-.848-2.032-2.053h-.005c-.156-.165-.318-.329-.487-.499-1.762-1.801-4.018-4.151-5.32-5.669l4.65 3.612 5.772-2.114s2.839 4.435 9.744-.368c0 0 2.315-1.223 7.253.486 0 0 3.114 2.058 8.877-2.986"/>
        <path fill="#E8C0A6" d="M190.815 184.258l3.488 4.145s8.719 2.048 17.253-1.595c0 0-7.168 4.921-14.102 6.224 0 0-2.505-1.044-6.64-8.774"/>
        <path fill="#FFF" d="M237.481 151.2c-4.975 2.234-9.13 3.654-12.58 4.504-11.919 2.957-15.42-.8-15.42-.8 2.234-4.412 4.618-7.51 6.939-9.671l.004-.005c7.009-6.534 13.453-4.561 13.453-4.561l7.604 10.534M191.852 153.548c-5.176-2.652-9.816-3.939-13.486-4.54-5.25-.858-8.515-.299-8.515-.299l-3.925-5.238c3.256-1.953 6.495-2.31 9.522-1.743 9.16 1.702 16.404 11.82 16.404 11.82"/>
        <path fill="#0FE8AF" d="M191.852 154.645c-3.505-1.82-6.761-3.007-9.644-3.773l-.005-.007c-1.4-.378-2.707-.65-3.91-.85-3.828-4.017-2.946-7.434-2.946-7.434h.011c1.592.303 3.135.857 4.582 1.574 6.799 3.362 11.73 10.228 11.912 10.49"/>
        <path fill="#FFDE17" d="M293.395 172.947c-23.063-9.011-21.862-33.017-21.862-33.017 11.657-7.9 25.06-2.9 25.06-2.9-4.16-13.8-20.928-24.594-20.928-24.594-16.81.058-20.863-10.503-20.863-10.503 9.63-5.149 27.234-1.15 27.234-1.15-8.378-9.272-28.395-14.17-28.395-14.17-9.018-8.545-27.926-15.878-27.926-15.878-9.423-.78-36.786 8.55-36.786 8.55 9.24-16.973 22.876-17.056 22.876-17.056-15.114-4.655-38.655 12.284-38.655 12.284-3.854 11.7-20.591 34.305-20.591 34.305-.928 8.068 4.09 15.775 4.09 15.775l-1.428 13.02s2.563 5.542 5.23 14.182c1.225 3.975 1.693 8.055 1.84 11.308l3.195-3.037 2.991 2.426a28.365 28.365 0 0 0-.134-1.555c-1.163-10.78-7.898-29.578-7.898-29.578 12.046 12.098 22.017 9.333 22.017 9.333-9.068-2.303-13.078-10.797-13.2-11.063 7.403 3.666 15.737 3.64 15.737 3.64 11.58 10.001 19.559 11.115 19.559 11.115 3.674-5.07 12.396-9.62 12.396-9.62 11.65 4.078 25.602 21.885 25.602 21.885l4.65.533-2.782 7.994 4.14-2.972 4.398.965c4.676 17.444-15.488 20.305-15.488 20.305l-2.127 3.744s-3.748 3.933-9.767 9.206c10.328.063 22.048 14.157 22.048 14.157-1.767-10.2-5.67-19.092-5.79-19.37 15.2 11.412 32.112 6.557 32.112 6.557-7.428-4.517-6.837-14.827-6.837-14.827-3.342-1.004-5.573-4.445-5.573-4.445 13.296 1.763 31.855-5.549 31.855-5.549"/>
        <path fill="#0FE8AF" d="M238.519 151.2c-4.9 2.253-8.991 3.685-12.388 4.542-6.587-1.973-8.353-10.56-8.353-10.56l.004-.005a20.35 20.35 0 0 1 3.205-2.521c.777-.49 1.53-.88 2.255-1.19a14.383 14.383 0 0 1 2.383-.804 12.72 12.72 0 0 1 1.514-.275c2.852 2.263 5.553 4.784 7.856 7.11.47.471.925.938 1.359 1.389.312.33.618.647.91.955.437.468.855.918 1.249 1.349l.006.01"/>
        <path fill="#FFBD1A" d="M293.395 173.956c-23.063-9.032-21.862-33.094-21.862-33.094 11.657-7.919 25.06-2.907 25.06-2.907-18.659-21.344-49.978-15.51-49.978-15.51 6.24 4.735 9.42 15.553 9.515 15.893-8.528-11.16-24.952-16.417-25.466-16.579 9.34 5.96 13.185 16.695 13.301 17.03-.257-.25-8.644-8.223-25.426-11.312-16.782-3.084-27.27-9.844-27.595-10.051 3.58 9.682 7.253 14.195 7.253 14.195-11.79-4.268-27.704-20.066-27.704-20.066 2.38 9.332 5.55 13.17 5.55 13.17-13.395-3.46-23.484-15.048-23.484-15.048-.928 8.088 4.09 15.812 4.09 15.812l-1.428 13.051s2.563 5.554 5.23 14.215c1.225 3.984 1.693 8.074 1.84 11.334l3.195-3.044 2.991 2.431c-.604-10.432-8.032-31.205-8.032-31.205 12.046 12.126 22.017 9.354 22.017 9.354-9.068-2.307-13.078-10.821-13.2-11.088 7.403 3.675 15.737 3.649 15.737 3.649 11.58 10.024 19.559 11.14 19.559 11.14 3.674-5.081 12.396-9.642 12.396-9.642 3.428 1.203 7.055 3.601 10.468 6.383 4.481 3.65 8.59 7.96 11.393 11.12 2.315 2.61 3.741 4.433 3.741 4.433l4.65.534-2.782 8.013 4.14-2.979 4.398.967c4.676 17.485-15.488 20.352-15.488 20.352l-2.127 3.753s-3.748 3.942-9.767 9.228c10.328.063 22.048 14.19 22.048 14.19-1.767-10.224-5.67-19.137-5.79-19.416 15.2 11.44 32.112 6.573 32.112 6.573-7.428-4.528-6.837-14.862-6.837-14.862-3.342-1.006-5.573-4.455-5.573-4.455 13.296 1.767 31.855-5.562 31.855-5.562"/>
        <path fill="#DD9D0E" d="M209.481 143.677s9.188-16.234 22.108-18.645c0 0 5.413 3.224 7.967 8.216 0 0-12.5-8.883-30.075 10.43M190.815 144.774s-10.093-14.436-17.902-17.548c0 0-5.799.022-10.098 1.59 0 0 18.659 3.1 28 15.958"/>
        <path fill="#FFF" d="M212.593 182.676l-1.512 1.451s-12.779.738-17.17-1.289c0 0-.87-.874-2.06-2.117l3.257-.563s6.12 3.815 12.587.247c0 0 2.605-1.416 4.604.363l.294 1.908"/>
        <path fill="#13C4D6" d="M192.889 153.548c-3.609-1.712-6.962-2.83-9.93-3.55l-.005-.006c-3.472-3.546-2.33-6.315-2.33-6.315 7 3.164 12.078 9.625 12.265 9.871M235.407 149.03c-1.467 1.344-3.61 2.232-6.021 2.318-4.572.166-8.375-2.609-8.494-6.205-.045-1.334.426-2.595 1.272-3.658a14.459 14.459 0 0 1 2.407-.819c.54-.132 1.05-.222 1.529-.279 2.88 2.301 5.609 4.865 7.935 7.231.476.48.934.954 1.372 1.412"/>
        <path fill="#E8C0A6" d="M237.481 176.58l4.47-16.646-2.507-1.181 1.21-3.011c.775.916 1.205 1.462 1.205 1.462l4.639.525-2.776 7.88 4.13-2.929-10.37 13.9M164.889 160.129l2.62 2.484a37.358 37.358 0 0 0-.152-1.974l.148.485s2.39 10.853 3.606 14.36c-.157-.305-5.275-10.047-6.222-15.355"/>
        <path fill="#F15A29" d="M158.668 222.204l-.001.001c.69-.214 1.384-.433 2.074-.657-.693.222-1.385.445-2.073.656M155.556 222.968"/>
        <path fill="#BE1E2D" d="M244.74 227.285s-1.35.929-3.517 2.733a93.364 93.364 0 0 0-8.43 7.982c-9.117-8.73-18.126-9.178-18.126-9.178s.782-8.963 4.737-11.66c.773.38 1.84.858 3.12 1.407 4.651 1.985 12.13 4.888 18.715 7.387 1.206.46 2.38.905 3.502 1.33"/>
        <path fill="#BE1E2D" d="M214.177 223.874a30.745 30.745 0 0 0-1.187 5.816c-4.458 2.687-9.889 12.277-9.889 12.277-7.825-2.096-32.407-1.481-32.407-1.481.793-6.95 3.696-13.084 6.768-17.84l-5.993 4.818s-10.636 17.028-11.765 48.661l4.26 7.368-.527-3.743 5.433 6.508 11.202-4.896-2.043 2.88 12.006-6.209s16.124-39.51 27.053-47.525c5.454-4.001 1.957-5.817-2.911-6.634"/>
        <path fill="#FFDE17" d="M162.815 273.339s3.063-21.479 5.523-28.758c0 0 22.176.022 29.736 1.136 0 0-5.72 10.658-6.915 14.463l-10.673.531s1.646-6.051 2.655-7.48l-7.405-.425s-3.147 12.651-3.357 14.331l.656 3.877 4.009-2.516 1.595-3.68 10.933-.68-3.97 9.478-16.17 8.255-6.617-8.532"/>
        <path fill="#2C6BC6" d="M171.111 402.516s-19.963-19.844-20.74-49.363c0 0 3.011-4.658 2.209-13.153 0 0 5.674 50.634 18.531 62.516"/>
        <path fill="#0B3E7A" d="M218.146 368.516c-.277-.419-9.028-13.876-10.383-22.983l-5.525 6.969s-1.226-27.58 17.614-43.212c-.303.421-13.598 19.043-1.706 59.226M239.556 226.518s-6.89 4.662-8.264 7.095c0 0-5.22-4.938-13.514-7.198 0 0 1.17-5.527 3.831-7.007.035-.017.07-.042.111-.053 4.432 1.925 11.559 4.74 17.836 7.163M178.37 216.065s-4.697 5.057-5.198 7.778c0 0-10.06 2.534-13.468 5.383 0 0 2.952-6.989 3.678-8.392a301.83 301.83 0 0 0 3.773-1.134 409.13 409.13 0 0 0 11.215-3.635"/>
        <path fill="#931120" d="M255.665 246.894c-12.996 5.395-18.464 27.898-18.464 27.898a25.536 25.536 0 0 1-.551 2.692c-2.385-20.492 16.776-44.968 16.776-44.968 4.272 7.5 2.239 14.378 2.239 14.378"/>
        <path fill="#1450A8" d="M292.32 321.506s-12.656 15.548-29.126 23.125c-16.472 7.572-31.567 19.195-31.567 19.195s-9.53 13.195-15.201 3.048l-7.148-1.052-5.723 3.195.887-4.192-5.33.197.175-4.216 10.572-15.154 11.754-4.766s3.236-1.249 3.758 2.122l2.374 11.023s12.689-3.67 23.942-23.856c11.074-19.851 14.91-18.856 15.036-18.821-.035-.043-.264-.34-.649-.84-.517-.67-1.314-1.704-2.318-2.994-6.358-8.188-20.905-26.73-23.157-27.962 0 0-2.254-2.816-4.993.053 6.907-34.42 19.955-33.933 19.955-33.933s9.409 12.352 19.008 29.076a245.76 245.76 0 0 1 5.63 10.345v.006c4.481 8.726 8.584 18.094 11.286 27.223 0 0 6.23 5.568.835 9.178"/>
        <path fill="#FFDE17" d="M292.32 321.78s-12.656 15.462-29.126 22.996c-16.472 7.53-31.567 19.088-31.567 19.088s-9.53 13.122-15.201 3.031l-7.148-1.046-5.723 3.177.887-4.168-5.33.196.175-4.193 10.572-15.069 11.754-4.739s3.236-1.242 3.758 2.11l2.374 10.961s12.689-3.65 23.942-23.722c11.074-19.74 14.91-18.751 15.036-18.717-.08-.098-1.212-1.562-2.967-3.812 0 0 4.54-13.277 2.727-19.765 0 0 4.018 3.223 5.551 6.536 0 0 3.055-8.302 2.535-19.354 6.513 11.283 13.11 24.563 16.916 37.365 0 0 6.23 5.536.835 9.126"/>
        <path fill="#FFBD1A" d="M292.322 322.637s-12.657 15.537-29.128 23.108c-8.262 3.792-16.172 8.603-22.006 12.457a196.019 196.019 0 0 0-6.22 4.273c-2.121 1.516-3.344 2.452-3.344 2.452s-9.525 13.187-15.2 3.046l-7.147-1.047-5.724 3.186.891-4.186-5.333.198.175-4.215 10.572-15.143 11.755-4.76s.426-.164 1.003-.21c.997-.09 2.427.182 2.757 2.325l2.375 11.018s.703-.203 1.92-.78c.206-.095.437-.202.677-.327 1.813-.918 4.441-2.504 7.493-5.139 4.182-3.6 9.136-9.15 13.85-17.597 11.075-19.836 14.909-18.844 15.031-18.81-.031-.038-.26-.337-.646-.834 0 0 2.945-5.072 2.96-10.155 0 0 4.183 2.81 5.837 9.828 0 0 6.095-15.837 5.327-25.067 4.487 8.716 8.588 18.082 11.287 27.205 0 0 6.23 5.562.838 9.174"/>
        <path fill="#FFDE17" d="M241.38 358.549s1.63-5.271-3.44-9.775l-.006.001c-3.14 2.765-5.848 4.433-7.712 5.397 0 0 4.187 1.252 4.756 8.86"/>
        <path fill="#2B3990" d="M144.148 477.643c-.093.257-3.18 8.512-13.397 12.615h-.004c-.813-6.52-1.292-10.554-1.292-10.554-1.382-3.02-1.862-6.248-1.9-9.188 0 0 6.086 13.507 16.593 7.127M259.26 527.548C252.971 508.804 242 504.024 242 504.024c-7.337 6.998-13.696-7.292-13.853-7.654 11.85 4.527 13.37-18.176 13.37-18.176.758 8.628 1.028 13.906 1.028 13.906s10.017 13.24 16.713 35.448"/>
        <path fill="#DD9D0E" d="M231.186 363.735c-.59-2.968-2.285-3.548-2.285-3.548 0 4.629-2.363 7.232-2.363 7.232l-2.067-3.326c1.122-7.296-2.457-22.615-2.545-22.981 1.104-.092 2.687.186 3.053 2.385l2.629 11.298s.779-.208 2.125-.799c2.02 2.998 1.453 9.739 1.453 9.739"/>
        <g transform="translate(92.296 246.774)">
            <mask id="b" fill="#fff">
                <use xlink:href="#a"/>
            </mask>
            <path fill="#DD9D0E" d="M8.637 183.187l-1.946 5.432c-.339 5.939-2.72 6.31-2.72 6.31-1.475-7.128-3.446-8.384-3.446-8.384l4.917-6.907c2.393-7.898-4.121-13.96-4.121-13.96-.776-14.283 2.44-12.603 2.606-12.5-.16 0-2.526.173 1.696 11.074 4.36 11.256 1.553 14.86 1.553 14.86l1.461 4.075" mask="url(#b)"/>
            <path fill="#DD526A" d="M186.677.306s71.57 53.855 123.14 53.855c0 0 22.596 19.456 15.95 34.4 0 0-12.229-22.275-52.368-23.121-40.142-.846-60.989-46.977-86.722-65.134" mask="url(#b)"/>
        </g>
        <path fill="#F1F2F2" d="M52.868 117.583l-12.53 30.523 5.47-7.496-13.798 35.145 2.196-10.172-7.978 18.675 1.807-18.663s-.82-.703-2.11-2.03l12.159-25.176-7.551 7.141 23.191-42.433c1.156 2.31 2.276 3.295 2.276 3.295l-11.12 26.114 7.988-14.923M68.131 216.065c-5.186-3.102-10.254-6.73-12.422-13.772l-2.82 2.078 2.88-14.735 11.235-48.943-.02 12.752 6.798-27.316-.485 11.479s1.42-.102 3.444.22c0 0-15.441 56.003-8.61 78.237M94.37 156.296v.005c-.052.339-2.129 13.5-9.611 21.16-7.585 7.762-9.024 19.958-9.024 19.958s-.79-8.038 5.534-22.031c6.325-13.986 5.83-32.807 5.83-32.807 1.702 1.673 3.14 3.975 3.946 7.14.94 3.68 2.124 5.643 3.325 6.575"/>
        <path fill="#7A0B1B" d="M26.416 119.053c-.395-2.366-1.369-4.614-1.119-7.182-.581.52-1.158 1.03-1.537 1.691-.096.167.554.785.674 1.26.37 1.46.647 2.955.961 4.435l-.184.09c-.146-.258-.304-.506-.435-.774-.545-1.119-1.062-2.255-1.633-3.356-.121-.234-.469-.532-.623-.475-.288.107-.585.406-.73.717-.07.155.18.522.304.781.166.351.445.668.512 1.04.622 3.459 1.243 6.919 1.788 10.395.201 1.284.201 2.612.294 3.938.3-.427.596-.923.956-1.35.443-.524.868-.98.066-1.568-.107-.078-.126-.345-.157-.53-.324-2.02-.649-4.043-.966-6.066-.025-.153-.003-.316-.003-.721 1.138 2.334 2.157 4.43 3.178 6.526l.238-.113c-.1-.52-.205-1.041-.299-1.564-.433-2.39-.887-4.776-1.285-7.174M21.56 131.838c-1.021-1.78-1.013-3.88-1.4-5.84.07-.032.135-.064.202-.097.218.582.434 1.164.67 1.801.47-1.707.216-3.712-.6-4.574-.05.66-.098 1.265-.152 1.947-.748-1.343-1.037-5.201-.392-6.724.267.573.526.95.636 1.386.892 3.584 1.427 7.247 1.402 11.015-.002.359-.142.716-.367 1.086zm-1.053-15.154c-.126-.271-.664-.517-.865-.393-.329.206-.695.68-.766 1.114-.157.94-.135 1.924-.186 2.891h-.021c0 .233-.006.468 0 .7.108 4.288.914 8.4 1.929 12.461.086.346.223.688.39.982.363.638.775.627 1.018-.088.266-.792.505-1.63.6-2.477.45-4.066.174-8.077-.85-11.974-.295-1.125-.769-2.19-1.249-3.216zM34.649 109.579c-.448-1.425-.877-2.716-1.237-4.026-.06-.223.112-.596.306-.76.139-.122.564-.11.742.01 1.124.741 1.309 3.647.189 4.776zm1.772.858c-.076-.118-.003-.323-.001-.49.02-1.387.205-2.795.01-4.155-.152-1.077-.697-2.128-1.205-3.126-.337-.66-1.058-.926-1.696-.348-.92.829-1.735 1.76-2.418 2.47.54 1.058 1.17 1.915 1.423 2.864 1.037 3.914 2.802 7.68 2.754 11.896.762-.837 1.48-1.628 2.191-2.407-1.538-1.122-1.273-2.797-1.654-4.269.778 1.076 1.558 2.152 2.408 3.323.266-.273.417-.414.554-.57.91-1.03.78-1.023-.14-1.985-.893-.935-1.51-2.116-2.226-3.203zM29.905 109.837c-.07-.305.03-.655.053-.985l.342-.054 1.605 2.941a47.909 47.909 0 0 0-1.119-4.52c-.095-.317-.412-.555-.627-.832-1.083 1.093-2.052 2.057-3 3.05-.129.132-.228.423-.186.6.393 1.661.821 3.314 1.288 5.165.25-1.652-.427-3.166.28-4.587 1.314 4.337 2.522 8.663 2.653 13.32.686-.82 1.414-1.69 1.991-2.382-.399-.662-.838-1.118-.971-1.66-.813-3.34-1.564-6.697-2.309-10.056"/>
        <path fill="#7A0B1B" d="M37.715 106.536l-.294.083c-.15-.897-.303-1.796-.455-2.693l.214-.061c.272.863.759 1.663.535 2.671zm-1.619-10.02c-1.006 1.23-1.053 1.723-.417 3.048.15.309.194.705.245 1.07.635 4.469 1.262 8.94 1.894 13.43l.877-1.418c-1.013-1.458-1.153-3.815-.185-4.905l.856 3.62 1.078-2.35c-1.157-1.907-1.759-3.978-2.33-6.096-.582-2.16-1.332-4.25-2.018-6.399zM46.178 95.85c-.06-.148-.068-.322-.085-.487-.358-3.68-.726-7.362-1.055-11.047-.034-.373.165-.77.256-1.156l.301.038.762 2.364.125-.021c-.083-1.58-.153-3.16-.26-4.737-.018-.253-.196-.494-.3-.74-.2.165-.473.285-.593.503-.92 1.67-1.815 3.358-2.707 5.047a.81.81 0 0 0-.097.474c.305 1.896.624 3.79.94 5.685.123-.953.02-1.88.056-2.798.033-.9-.367-1.868.194-2.706.107-.01.217-.017.323-.027.602 4.497 1.206 8.995 1.82 13.564.285-.945.633-1.86.802-2.809.062-.334-.323-.756-.482-1.147M42.45 102.917c-1.34-1.165-2.747-10.07-1.772-11.534l1.308 1.608c-.324-1.848-.615-3.496-.924-5.25-.249.42-.398.705-.574.969-.27.401-.697.744-.81 1.192-.183.729-.197 1.52-.233 2.287-.179 3.813.27 7.524 1.547 11.081.203.567.457 1.133.781 1.62.387.582.924.526 1.148-.147.3-.892.635-1.843.635-2.77-.001-1.068-.35-2.136-.55-3.203-.343 1.36.142 2.828-.555 4.147M16.8 131.754v4.316c-1.036-1.095-2.932-12.656-2.323-14.257l1.55 2.944-.918-5.209c-.216.105-.387.278-.503.235-.908-.332-1.064.196-1.1 1.124-.246 6.115 1.463 11.781 2.858 17.52.075.308.307.563.478.863 1.489-2.58.432-5.058.312-7.535l-.355-.001"/>
    </g>
</svg>
